<svg width="171" height="164" viewBox="0 0 171 164" fill="none" xmlns="http://www.w3.org/2000/svg">
<path d="M135.874 135.437C134.52 135.437 133.166 134.958 132.098 133.933C130.031 131.952 130.031 128.672 132.098 126.69C157.819 102.022 157.819 61.9099 132.098 37.3099C130.031 35.3282 130.031 32.0482 132.098 30.0666C134.164 28.0849 137.584 28.0849 139.65 30.0666C169.504 58.6982 169.504 105.302 139.65 133.933C138.581 134.958 137.227 135.437 135.874 135.437Z" fill="#4F48EB"/>
<path d="M35.1262 135.437C33.7725 135.437 32.4187 134.958 31.35 133.933C1.49625 105.302 1.49625 58.6982 31.35 30.0666C33.4162 28.0849 36.8362 28.0849 38.9025 30.0666C40.9687 32.0482 40.9687 35.3282 38.9025 37.3099C13.1812 61.9782 13.1812 102.09 38.9025 126.69C40.9687 128.672 40.9687 131.952 38.9025 133.933C37.8337 134.958 36.48 135.437 35.1262 135.437Z" fill="#4F48EB"/>
<path d="M85.5 155.185C76.5937 155.117 68.115 153.75 60.2062 151.085C57.4275 150.128 55.9312 147.19 56.9287 144.525C57.9262 141.86 60.9187 140.425 63.7687 141.382C70.6087 143.637 77.8763 144.867 85.5713 144.867C93.195 144.867 100.534 143.637 107.303 141.382C110.081 140.493 113.145 141.86 114.143 144.525C115.14 147.19 113.644 150.128 110.865 151.085C102.885 153.75 94.4062 155.185 85.5 155.185Z" fill="#4F48EB"/>
<path d="M109.013 22.8233C108.443 22.8233 107.801 22.7549 107.231 22.5499C100.463 20.2266 93.1238 19.0649 85.5 19.0649C77.8763 19.0649 70.6087 20.2949 63.7687 22.5499C60.9187 23.4383 57.9262 22.0716 56.9287 19.4066C55.9312 16.7416 57.4275 13.8033 60.2062 12.8466C68.1862 10.1816 76.665 8.81494 85.5 8.81494C94.335 8.81494 102.885 10.1816 110.794 12.8466C113.573 13.8033 115.069 16.7416 114.071 19.4066C113.288 21.5249 111.221 22.8233 109.013 22.8233Z" fill="#4F48EB"/>
<path d="M62.2725 81.9999V70.5883C62.2725 56.3749 72.7463 50.5666 85.5713 57.6733L95.9025 63.4133L106.234 69.1533C119.059 76.2599 119.059 87.8766 106.234 94.9833L95.9025 100.723L85.5713 106.463C72.7463 113.57 62.2725 107.762 62.2725 93.5483V81.9999Z" fill="#4F48EB"/>
</svg>
